<svg t="1777018078593" class="icon" viewBox="0 0 1024 1024" version="1.1" xmlns="http://www.w3.org/2000/svg" p-id="11822" width="200" height="200"><path d="M56.888889 56.888889m113.777778 0l682.666666 0q113.777778 0 113.777778 113.777778l0 682.666666q0 113.777778-113.777778 113.777778l-682.666666 0q-113.777778 0-113.777778-113.777778l0-682.666666q0-113.777778 113.777778-113.777778Z" fill="#FF0501" p-id="11823"></path><path d="M633.173333 221.297778H455.111111v583.111111h175.786667A277.048889 277.048889 0 0 0 892.017778 512a277.048889 277.048889 0 0 0-258.844445-290.702222z m170.666667 291.84a188.871111 188.871111 0 0 1-170.666667 202.524444H546.133333V310.044444h87.04A188.871111 188.871111 0 0 1 803.271111 512zM308.906667 595.626667a120.604444 120.604444 0 0 1-120.604445 120.035555h-44.373333v88.746667h44.373333A209.351111 209.351111 0 0 0 398.222222 595.626667V221.297778H308.906667z" fill="#FFFFFF" p-id="11824"></path></svg>