<svg t="1777261240706" class="icon" viewBox="0 0 1024 1024" version="1.1" xmlns="http://www.w3.org/2000/svg" p-id="22296" width="200" height="200"><path d="M600.685568 345.430016l204.032 0 0 343.805952-204.032 0 0-343.805952Z" fill="#FF9000" p-id="22297"></path><path d="M882.156544 86.528 768.877568 86.528l0 59.854848c0 20.099072-16.303104 36.402176-36.402176 36.402176s-36.402176-16.303104-36.402176-36.402176L696.073216 86.528l-375.01952 0 0 59.854848c0 20.099072-16.303104 36.402176-36.402176 36.402176-20.093952 0-36.402176-16.303104-36.402176-36.402176L248.249344 86.528 134.975488 86.528c-55.481344 0-100.460544 44.978176-100.460544 100.460544L34.514944 806.46144c0 55.481344 44.978176 100.460544 100.460544 100.460544l512.381952 0 194.382848 0 40.416256 0c55.486464 0 100.460544-44.978176 100.460544-100.460544L982.617088 186.988544C982.617088 131.5072 937.643008 86.528 882.156544 86.528zM456.373248 709.204992 456.373248 709.204992c-0.001024 11.032576-8.950784 19.96288-19.963904 19.96288L192.447488 729.167872c-11.008 0-19.96288-8.930304-19.96288-19.96288 0-11.041792 8.95488-19.968 19.96288-19.968l224 0L416.447488 536.143872l-224 0c-11.008 0-19.96288-8.926208-19.96288-19.96288s8.95488-19.96288 19.96288-19.96288l224 0L416.447488 345.430016l-224 0c-11.008 0-19.96288-8.926208-19.96288-19.96288 0-11.036672 8.95488-19.96288 19.96288-19.96288l243.96288 0c11.01312 0 19.96288 8.926208 19.96288 19.96288L456.373248 709.204992zM844.643328 709.204992c0 11.032576-8.94976 19.96288-19.96288 19.96288l-243.95776 0c-11.01312 0-19.968-8.930304-19.968-19.96288L560.754688 325.467136c0-11.036672 8.95488-19.96288 19.968-19.96288l243.95776 0c11.01312 0 19.96288 8.926208 19.96288 19.96288L844.643328 709.204992z" fill="#FF9000" p-id="22298"></path><path d="M284.66176 168.233984c12.06272 0 21.840896-9.7792 21.840896-21.840896L306.502656 60.222464c0-12.06272-9.7792-21.840896-21.840896-21.840896-12.06272 0-21.840896 9.778176-21.840896 21.840896l0 86.170624C262.81984 158.454784 272.59904 168.233984 284.66176 168.233984z" fill="#FF9000" p-id="22299"></path><path d="M732.471296 168.233984c12.06272 0 21.840896-9.7792 21.840896-21.840896L754.312192 60.222464c0-12.06272-9.778176-21.840896-21.840896-21.840896-12.06272 0-21.840896 9.778176-21.840896 21.840896l0 86.170624C710.629376 158.454784 720.407552 168.233984 732.471296 168.233984z" fill="#FF9000" p-id="22300"></path></svg>