<svg t="1777253533628" class="icon" viewBox="0 0 1024 1024" version="1.1" xmlns="http://www.w3.org/2000/svg" p-id="20285" width="200" height="200"><path d="M512 56.32c-251.904 0-455.68 203.776-455.68 455.68s203.776 455.68 455.68 455.68 455.68-203.776 455.68-455.68c0-251.392-203.776-455.68-455.68-455.68z m278.016 460.8l-241.152 179.712c-4.096 3.072-9.728 5.12-15.36 5.12-13.312 0-24.576-10.24-25.088-23.552v-88.576H440.832c-83.456 0-159.232 32.256-215.552 85.504-2.048 1.536-4.096 2.048-6.656 2.048-5.632 0-10.752-4.608-10.752-10.24v-1.536c28.16-138.24 153.088-243.2 299.52-249.344V326.656c1.024-13.312 11.776-23.552 25.088-23.552 5.632 0 10.752 2.048 14.848 5.12l242.176 180.224c4.096 3.584 6.656 8.704 6.656 14.336 0.512 5.632-2.048 10.752-6.144 14.336z" fill="#FF9A55" p-id="20286"></path></svg>